<svg width="1600" height="800" viewBox="0 0 1600 800" fill="none" xmlns="http://www.w3.org/2000/svg">
<g opacity="0.5" clip-path="url(#clip0_343_723)">
<path d="M1600 0H0V800H1600V0Z" fill="white"/>
<path d="M1102.5 734.8C1105 733.6 1127.3 726.2 1128.1 727.3C1128.6 728 1124.2 751.1 1123.5 751.8C1123.3 752.1 1107.5 739.5 1102.5 734.8ZM1226.3 229.1C1226.3 229 1221.4 219.7 1219.3 214.9C1219.2 214.6 1219 213.8 1218.9 213.3C1218.8 212.9 1218.6 212.6 1218.3 212.4C1218 212.2 1217.7 212.3 1217.5 212.5L1204.4 224.8C1204.2 225 1204.1 225.3 1204 225.6C1204 225.9 1204 226.3 1204.2 226.6C1204.3 226.7 1205.6 229.1 1206.3 230.2C1208.7 233.9 1212.8 242.3 1212.8 242.4C1213 242.7 1213.2 242.9 1213.5 243C1213.8 243 1214 242.9 1214.2 242.7C1214.2 242.7 1216 240.2 1216.9 239.1C1218.4 237.5 1219.9 235.9 1221.5 234.4C1222.7 233.2 1223.1 233 1223.6 232.8C1224.1 232.5 1224.7 232.3 1226.1 230.9C1226.5 230.4 1226.6 229.6 1226.3 229.1ZM32.9999 770.3C32.9999 769.6 32.4999 769.1 31.7999 769.1C31.6999 769.1 31.4999 769.1 31.3999 769.2C29.7999 769.4 17.0999 769.3 9.1999 769.2C8.8999 769.2 8.5999 769.3 8.2999 769.6C8.0999 769.8 7.8999 770.1 7.8999 770.5C7.8999 770.7 7.8999 775.4 7.9999 776.4L8.3999 790C8.3999 790.3 8.5999 790.6 8.7999 790.9C8.9999 791.1 9.2999 791.2 9.5999 791.2H9.6999C16.9999 790.5 24.3999 790.3 31.6999 790.6C31.9999 790.6 32.3999 790.5 32.5999 790.3C32.7999 790.1 32.9999 789.7 32.9999 789.4C32.8999 783.3 32.8999 776.2 32.9999 770.3Z" fill="#F6641A" fill-opacity="0.5"/>
<path d="M8 199.539C9.3 197.039 22.3 177.539 23.6 177.939C24.4 178.239 35.1 199.139 35.1 200.039C35 200.339 14.8 200.139 8 199.539ZM433.3 527.939C433.2 527.839 426.6 519.739 423.6 515.439C423.4 515.139 423.1 514.439 422.9 513.939C422.7 513.539 422.5 513.239 422.2 513.139C421.9 513.039 421.6 513.139 421.4 513.439L410.9 528.139C410.7 528.339 410.7 528.639 410.7 529.039C410.7 529.339 410.9 529.739 411.1 529.939C411.2 530.039 412.9 532.139 413.9 533.039C417 536.139 422.7 543.539 422.8 543.639C423 543.939 423.3 544.039 423.6 544.039C423.9 544.039 424.1 543.839 424.2 543.539C424.2 543.539 425.4 540.739 426.2 539.439C427.3 537.539 428.5 535.739 429.7 533.939C430.6 532.539 431 532.239 431.4 531.939C431.9 531.539 432.4 531.239 433.5 529.539C433.8 529.239 433.7 528.439 433.3 527.939ZM564.4 -3.96077C565 -3.76077 565.7 -4.16076 565.8 -4.76076C565.8 -4.86076 565.8 -4.96077 565.8 -5.16077C566 -6.56077 568.6 -17.7608 570.3 -24.6608C570.4 -24.9608 570.3 -25.2608 570.1 -25.4608C569.9 -25.7608 569.6 -25.8608 569.3 -25.9608C569.1 -25.9608 564.6 -27.0608 563.6 -27.2608L550.2 -29.9608C549.9 -30.0608 549.5 -29.9608 549.3 -29.7608C549.1 -29.5608 548.9 -29.3608 548.8 -29.1608V-29.0608C548 -22.5608 546.6 -15.9608 544.9 -9.66077C544.8 -9.36077 544.9 -9.06076 545.1 -8.76076C545.3 -8.46076 545.6 -8.36076 545.9 -8.26076C551.7 -6.96076 558.6 -5.36077 564.4 -3.96077Z" fill="#F6641A" fill-opacity="0.5"/>
<path d="M509.6 522.701C508.1 522.701 506.8 521.901 506.1 520.401C505.3 518.501 506.1 516.201 508 515.401C511.7 513.801 514.8 510.701 516.4 506.901C518 503.101 518.1 498.801 516.6 495.001C516.3 494.101 515.8 493.201 515.4 492.201C514.6 490.501 513.6 488.501 513.1 486.301C512.2 482.201 512.9 477.701 515.1 473.501C516.8 470.401 519.2 467.401 522.7 464.401C524.3 463.001 526.7 463.201 528 464.801C529.4 466.401 529.2 468.801 527.6 470.101C524.8 472.601 522.9 474.801 521.7 477.101C520.3 479.701 519.8 482.401 520.4 484.701C520.7 486.101 521.4 487.501 522.1 489.001C522.6 490.101 523.1 491.201 523.6 492.301C525.7 497.901 525.6 504.301 523.3 509.901C521 515.401 516.5 520.001 511 522.401C510.6 522.601 510.1 522.701 509.6 522.701ZM550.4 471.401C551.9 471.201 553.4 471.901 554.2 473.301C555.3 475.101 554.6 477.501 552.8 478.601C549.1 480.701 546.4 484.201 545.2 488.101C544 492.101 544.4 496.501 546.3 500.201C546.7 501.101 547.3 501.901 547.9 502.901C548.9 504.601 550.1 506.401 550.9 508.601C552.3 512.601 552.1 517.301 550.3 521.801C548.9 525.201 546.8 528.401 543.5 531.901C542 533.501 539.6 533.601 538 532.101C536.4 530.701 536.3 528.201 537.8 526.701C540.4 523.901 542.1 521.401 543.1 519.001C544.2 516.201 544.4 513.401 543.6 511.101C543.1 509.801 542.3 508.401 541.4 507.001C540.8 506.001 540.1 504.901 539.5 503.801C536.7 498.401 536.1 491.901 537.8 486.001C539.6 480.101 543.6 475.001 549 472.001C549.4 471.601 549.9 471.401 550.4 471.401ZM71.3 640.901C77 647.701 80.3 656.601 80.7 663.301C81.2 670.601 78.3 679.701 70.5 683.701C67.5 685.201 63.8 685.901 59.3 685.901C51.4 685.801 46.4 683.001 43.9 677.501C41.8 672.801 41.6 666.101 45.7 661.601C48.9 658.101 53.5 657.501 56.9 660.001C58.1 660.901 58.4 662.701 57.5 663.901C56.6 665.101 54.8 665.401 53.6 664.501C51.8 663.201 50 665.101 49.8 665.301C47.4 667.901 47.7 672.301 49 675.201C50.5 678.601 53.7 680.201 59.4 680.301C63 680.301 65.8 679.801 68 678.701C72.7 676.301 75.7 670.101 75.2 663.701C74.7 656.401 69.9 645.501 62.2 639.801C58 636.701 53.7 635.701 49.3 636.701C46.2 637.401 43.1 639.101 39.6 641.701C33 646.801 27.9 653.501 25.4 660.701C22.7 668.401 23.3 676.501 27.3 684.601C28 686.001 27.4 687.701 26 688.301C24.6 689.001 22.9 688.401 22.3 687.001C17.7 677.601 16.9 667.801 20.1 658.801C23 650.601 28.7 642.901 36.2 637.201C40.3 634.101 44.2 632.101 48 631.201C54 629.801 60 631.201 65.5 635.201C67.6 636.901 69.6 638.801 71.3 640.901Z" fill="#F6641A" fill-opacity="0.5"/>
<g clip-path="url(#clip1_343_723)">
<path d="M1498.7 297.201C1493.9 291.801 1489 286.401 1483.9 281.001C1489.5 275.401 1495 269.501 1499.5 262.801C1500.7 261.101 1500.2 258.701 1498.5 257.601C1496.8 256.401 1494.4 256.901 1493.3 258.601C1489.1 264.801 1484.2 270.201 1478.8 275.501C1474 270.501 1469.1 265.501 1464.1 260.601C1462.6 259.101 1460.2 259.101 1458.8 260.601C1457.3 262.101 1457.3 264.501 1458.8 265.901C1463.7 270.701 1468.5 275.701 1473.3 280.701C1472.2 281.801 1471 282.901 1469.8 283.901C1465.7 287.701 1461.4 291.701 1457.4 295.901C1456 297.401 1456 299.701 1457.4 301.201C1458.9 302.601 1461.3 302.601 1462.7 301.101C1466.6 297.101 1470.8 293.201 1474.8 289.401C1476 288.301 1477.1 287.201 1478.3 286.101C1483.2 291.401 1488.1 296.701 1492.9 302.001C1493 302.101 1493 302.101 1493.1 302.201C1494.5 303.601 1496.8 303.701 1498.3 302.401C1500 301.201 1500.1 298.801 1498.7 297.201ZM317.6 248.601L317.2 246.001C315.7 234.901 315 222.801 314.9 209.001C314.9 203.501 314.9 197.501 315.1 190.501C315.1 189.801 315.1 189.001 315.1 188.201C315.1 183.201 315.1 177.001 319 174.701C321.2 173.401 324.1 173.701 327.5 175.601C333.2 178.701 340.7 184.301 345 190.501C350.5 198.301 352.3 207.401 350 216.201C346.8 228.501 335 247.201 320 248.301L317.6 248.601ZM322.1 179.201C321.9 179.201 321.8 179.201 321.7 179.301C321.6 179.401 321 179.801 320.6 182.001C320.3 183.901 320.3 186.201 320.3 188.301C320.3 189.101 320.3 190.001 320.3 190.701C320.1 197.601 320.1 203.501 320.1 209.001C320.2 221.501 320.8 232.501 322.1 242.701C333.1 240.001 342.5 224.601 345.1 214.901C347 207.701 345.5 200.101 340.9 193.601C337 188.101 330 183.001 325 180.301C323.6 179.501 322.6 179.201 322.1 179.201ZM506.3 60.8013C506.2 60.8013 506.1 60.8013 505.9 60.7013C503.5 60.0013 501.9 59.8013 499.2 60.0013C498.5 60.0013 497.9 59.5013 497.8 58.8013C497.8 58.1013 498.3 57.5013 499 57.4013C502.1 57.2013 503.9 57.4013 506.6 58.2013C507.3 58.4013 507.7 59.1013 507.5 59.8013C507.3 60.4013 506.8 60.8013 506.3 60.8013ZM496.1 70.5013C495.6 70.5013 495.1 70.2013 494.9 69.7013C494.1 67.6013 493.7 65.4013 493.6 63.1013C493.6 62.4013 494.1 61.8013 494.8 61.8013C495.5 61.8013 496.1 62.3013 496.1 63.0013C496.2 65.0013 496.6 66.9013 497.2 68.8013C497.4 69.5013 497.1 70.2013 496.4 70.4013C496.4 70.5013 496.2 70.5013 496.1 70.5013ZM484.1 64.4013C483.7 64.4013 483.3 64.2013 483.1 63.9013C482.7 63.3013 482.8 62.5013 483.3 62.1013C485.1 60.7013 487 59.5013 489.1 58.5013C489.7 58.2013 490.5 58.5013 490.8 59.1013C491.1 59.7013 490.8 60.5013 490.2 60.8013C488.3 61.7013 486.5 62.8013 484.9 64.1013C484.7 64.3013 484.4 64.4013 484.1 64.4013ZM490.5 55.3013C490 55.3013 489.6 55.0013 489.3 54.6013C488.8 53.6013 488.1 52.7013 486.9 51.2013C486.6 50.8013 486.2 50.3013 485.8 49.8013C485.4 49.2013 485.5 48.4013 486 48.0013C486.6 47.6013 487.4 47.7013 487.8 48.2013C488.2 48.7013 488.6 49.2013 488.9 49.6013C490.2 51.2013 491 52.2013 491.6 53.5013C491.9 54.1013 491.6 54.9013 491 55.2013C490.9 55.3013 490.7 55.3013 490.5 55.3013ZM496.7 55.0013C496.4 55.0013 496.2 54.9013 495.9 54.8013C495.3 54.4013 495.2 53.6013 495.6 53.0013C496.8 51.3013 497.9 49.6013 498.9 47.8013C499.2 47.2013 500 46.9013 500.6 47.3013C501.2 47.6013 501.5 48.4013 501.1 49.0013C500.1 50.9013 498.9 52.8013 497.6 54.6013C497.4 54.8013 497.1 55.0013 496.7 55.0013ZM1019.3 382.801C1019.2 382.801 1019.1 382.801 1018.9 382.701C1016.5 382.001 1014.9 381.801 1012.2 382.001C1011.5 382.001 1010.9 381.501 1010.8 380.801C1010.8 380.101 1011.3 379.501 1012 379.401C1015.1 379.201 1016.9 379.401 1019.6 380.201C1020.3 380.401 1020.7 381.101 1020.5 381.801C1020.3 382.401 1019.8 382.801 1019.3 382.801ZM1009.1 392.501C1008.6 392.501 1008.1 392.201 1007.9 391.701C1007.1 389.601 1006.7 387.401 1006.6 385.101C1006.6 384.401 1007.1 383.801 1007.8 383.801C1008.5 383.801 1009.1 384.301 1009.1 385.001C1009.2 387.001 1009.6 388.901 1010.2 390.801C1010.4 391.501 1010.1 392.201 1009.4 392.401C1009.4 392.501 1009.2 392.501 1009.1 392.501ZM997.1 386.401C996.7 386.401 996.3 386.201 996.1 385.901C995.7 385.301 995.8 384.501 996.3 384.101C998.1 382.701 1000 381.501 1002.1 380.501C1002.7 380.201 1003.5 380.501 1003.8 381.101C1004.1 381.701 1003.8 382.501 1003.2 382.801C1001.3 383.701 999.5 384.801 997.9 386.101C997.7 386.301 997.4 386.401 997.1 386.401ZM1003.5 377.301C1003 377.301 1002.6 377.001 1002.3 376.601C1001.8 375.601 1001.1 374.701 999.9 373.201C999.6 372.801 999.2 372.301 998.8 371.801C998.4 371.201 998.5 370.401 999 370.001C999.6 369.601 1000.4 369.701 1000.8 370.201C1001.2 370.701 1001.6 371.201 1001.9 371.601C1003.2 373.201 1004 374.201 1004.6 375.501C1004.9 376.101 1004.6 376.901 1004 377.201C1003.9 377.301 1003.7 377.301 1003.5 377.301ZM1009.7 377.001C1009.4 377.001 1009.2 376.901 1008.9 376.801C1008.3 376.401 1008.2 375.601 1008.6 375.001C1009.8 373.301 1010.9 371.601 1011.9 369.801C1012.2 369.201 1013 368.901 1013.6 369.301C1014.2 369.601 1014.5 370.401 1014.1 371.001C1013.1 372.901 1011.9 374.801 1010.6 376.601C1010.4 376.801 1010.1 377.001 1009.7 377.001ZM1319.7 573.401C1318.3 573.401 1316.8 573.201 1315.2 572.701C1306.8 570.001 1298.6 560.001 1296.5 552.701C1296.1 551.301 1295.8 549.801 1295.6 548.301C1287.5 551.601 1280.1 558.901 1280.2 569.301C1280.2 570.801 1279 572.001 1277.5 572.101C1276 572.101 1274.8 570.901 1274.8 569.401C1274.7 562.701 1277.2 556.501 1281.8 551.401C1285.4 547.401 1290.2 544.301 1295.5 542.601C1296 536.101 1298.6 529.701 1302.9 525.201C1309.9 517.801 1321.1 516.301 1330.2 515.101L1330.9 515.001C1332.4 514.801 1333.8 515.901 1334 517.301C1334.2 518.801 1333.1 520.201 1331.7 520.401L1331 520.501C1322.4 521.701 1312.6 523.001 1307 528.901C1304 532.101 1302 536.601 1301.3 541.301C1309.2 540.301 1319 542.601 1325.6 547.001C1329.9 549.901 1332.7 554.801 1332.8 559.701C1333 564.001 1331.1 568.001 1327.6 570.801C1325.2 572.401 1322.6 573.401 1319.7 573.401ZM1301 546.701C1301.1 548.201 1301.4 549.701 1301.8 551.101C1303.5 556.901 1310.5 565.301 1316.9 567.401C1319.7 568.301 1322 567.901 1324.1 566.301C1326.8 564.201 1327.3 561.501 1327.2 559.701C1327.1 556.501 1325.2 553.301 1322.4 551.401C1316.7 547.501 1307.7 545.601 1301 546.701Z" fill="#00796B" fill-opacity="0.5"/>
</g>
</g>
<defs>
<clipPath id="clip0_343_723">
<rect width="1600" height="800" fill="white"/>
</clipPath>
<clipPath id="clip1_343_723">
<rect width="1118" height="526" fill="white" transform="translate(314 48)"/>
</clipPath>
</defs>
</svg>
