<svg width="1600" height="800" viewBox="0 0 1600 800" fill="none" xmlns="http://www.w3.org/2000/svg">
<g opacity="0.5">
<g opacity="0.7" clip-path="url(#clip0_346_865)">
<path d="M1575 300V156L1603 129" stroke="#7FBBB4" stroke-width="2"/>
<path d="M1592 286V162L1615 139" stroke="#7FBBB4" stroke-width="2"/>
<path d="M1500 400L1544 356V248" stroke="#7FBBB4" stroke-width="2"/>
<path d="M1516.5 402.5L1558 361V247" stroke="#7FBBB4" stroke-width="2"/>
<path d="M1455 452L1484 421.5L1522 420.5L1569.5 373L1571 330L1604 298" stroke="#7FBBB4" stroke-width="2"/>
<path d="M1454 477L1493 435L1533 433L1585 380L1586 339L1617 308" stroke="#7FBBB4" stroke-width="2"/>
<path d="M1550 437L1604 382" stroke="#7FBBB4" stroke-width="2"/>
<path d="M1562 144L1616 89" stroke="#7FBBB4" stroke-width="2"/>
<path d="M1568 440L1622 385" stroke="#7FBBB4" stroke-width="2"/>
<circle cx="4" cy="4" r="4" transform="matrix(1 0 0 -1 1564 444)" fill="#FAB18C"/>
<circle cx="4" cy="4" r="4" transform="matrix(1 0 0 -1 1547 440)" fill="#FAB18C"/>
<circle cx="4" cy="4" r="4" transform="matrix(1 0 0 -1 1454 454)" fill="#FAB18C"/>
<circle cx="4" cy="4" r="4" transform="matrix(1 0 0 -1 1451 479)" fill="#FAB18C"/>
<circle cx="4" cy="4" r="4" transform="matrix(1 0 0 -1 1512 407)" fill="#FAB18C"/>
<circle cx="4" cy="4" r="4" transform="matrix(1 0 0 -1 1499 402)" fill="#FAB18C"/>
<circle cx="4" cy="4" r="4" transform="matrix(1 0 0 -1 1540 251)" fill="#FAB18C"/>
<circle cx="4" cy="4" r="4" transform="matrix(1 0 0 -1 1554 251)" fill="#FAB18C"/>
<circle cx="4" cy="4" r="4" transform="matrix(1 0 0 -1 1571 303)" fill="#FAB18C"/>
<circle cx="4" cy="4" r="4" transform="matrix(1 0 0 -1 1588 292)" fill="#FAB18C"/>
<circle cx="4" cy="4" r="4" transform="matrix(1 0 0 -1 1558 148)" fill="#FAB18C"/>
</g>
<g opacity="0.7" clip-path="url(#clip1_346_865)">
<path d="M25 544L25 400L-3 373" stroke="#7FBBB4" stroke-width="2"/>
<path d="M8 530L8 406L-15 383" stroke="#7FBBB4" stroke-width="2"/>
<path d="M100 644L56 600L56 492" stroke="#7FBBB4" stroke-width="2"/>
<path d="M83.5 646.5L42 605L42 491" stroke="#7FBBB4" stroke-width="2"/>
<path d="M145 696L116 665.5L78 664.5L30.5 617L29 574L-4 542" stroke="#7FBBB4" stroke-width="2"/>
<path d="M146 721L107 679L67 677L15 624L14 583L-17 552" stroke="#7FBBB4" stroke-width="2"/>
<path d="M50 681L-4 626" stroke="#7FBBB4" stroke-width="2"/>
<path d="M38 388L-16 333" stroke="#7FBBB4" stroke-width="2"/>
<path d="M32 684L-22 629" stroke="#7FBBB4" stroke-width="2"/>
<circle cx="32" cy="684" r="4" transform="rotate(-180 32 684)" fill="#FAB18C"/>
<circle cx="49" cy="680" r="4" transform="rotate(-180 49 680)" fill="#FAB18C"/>
<circle cx="142" cy="694" r="4" transform="rotate(-180 142 694)" fill="#FAB18C"/>
<circle cx="145" cy="719" r="4" transform="rotate(-180 145 719)" fill="#FAB18C"/>
<circle cx="84" cy="647" r="4" transform="rotate(-180 84 647)" fill="#FAB18C"/>
<circle cx="97" cy="642" r="4" transform="rotate(-180 97 642)" fill="#FAB18C"/>
<circle cx="56" cy="491" r="4" transform="rotate(-180 56 491)" fill="#FAB18C"/>
<circle cx="42" cy="491" r="4" transform="rotate(-180 42 491)" fill="#FAB18C"/>
<circle cx="25" cy="543" r="4" transform="rotate(-180 25 543)" fill="#FAB18C"/>
<circle cx="8" cy="532" r="4" transform="rotate(-180 8 532)" fill="#FAB18C"/>
<circle cx="38" cy="388" r="4" transform="rotate(-180 38 388)" fill="#FAB18C"/>
</g>
</g>
<defs>
<clipPath id="clip0_346_865">
<rect width="158" height="386" fill="white" transform="matrix(1 0 0 -1 1442 486)"/>
</clipPath>
<clipPath id="clip1_346_865">
<rect width="158" height="386" fill="white" transform="matrix(-1 0 0 -1 158 730)"/>
</clipPath>
</defs>
</svg>
