<svg width="532" height="825" viewBox="0 0 532 825" fill="none" xmlns="http://www.w3.org/2000/svg">
<mask id="mask0_356_199" style="mask-type:alpha" maskUnits="userSpaceOnUse" x="1" y="-1" width="532" height="826">
<path d="M48.1555 418.739C41.7555 301.539 34.6554 321.739 48.1554 244.239C61.6554 166.739 108.155 159.739 121.155 165.239C134.155 170.739 177.155 175.739 211.155 170.739C245.155 165.739 271.655 139.739 331.155 133.739C390.655 127.739 408.155 145.239 425.655 181.739C442.632 217.147 430.331 242.834 441.155 280.239C451.227 315.04 477.155 298.239 477.155 365.739V435.239C477.155 435.239 479.198 397.677 490.655 381.239C502.272 364.572 524.339 360.455 527.655 337.239C532.155 305.739 532.655 280.239 531.155 260.739C527.655 215.239 521.879 189.065 499.155 149.739C477.464 112.2 459.719 90.5514 421.155 70.7388C400.392 60.0713 364.155 52.7388 364.155 52.7388C364.155 52.7388 352.596 51.047 345.155 50.2388C309.632 46.3798 289.107 45.7598 253.655 50.2388C243.054 51.5783 226.655 54.6839 226.655 54.6839C226.655 54.6839 178.759 58.7752 159.155 68.2388C115.655 89.2388 101.858 95.5744 77.6554 126.239C54.4473 155.644 46.8998 176.154 36.6555 211.739C27.0742 245.021 26.5727 266.044 25.6555 299.739C24.3477 347.784 48.1555 418.739 48.1555 418.739Z" fill="#180505"/>
<path d="M253.655 50.2388C289.107 45.7598 309.632 46.3798 345.155 50.2388C352.596 51.047 364.155 52.7388 364.155 52.7388C364.155 52.7388 356.863 31.2971 347.155 21.2388C334.662 8.29373 321.97 4.53151 305.655 1.2388C282.647 -3.40495 265.47 5.57231 248.155 18.7388C233.552 29.8438 226.655 54.6839 226.655 54.6839C226.655 54.6839 243.054 51.5783 253.655 50.2388Z" fill="#180505"/>
<path d="M477.155 365.739C477.155 298.239 451.227 315.04 441.155 280.239C430.331 242.834 442.632 217.147 425.655 181.739C408.155 145.239 390.655 127.739 331.155 133.739C271.655 139.739 245.155 165.739 211.155 170.739C177.155 175.739 134.155 170.739 121.155 165.239C108.155 159.739 61.6554 166.739 48.1554 244.239C34.6554 321.739 41.7555 301.539 48.1555 418.739C48.1555 418.739 24.3477 347.784 25.6555 299.739C26.5727 266.044 27.0742 245.021 36.6555 211.739C46.8998 176.154 54.4473 155.644 77.6554 126.239C101.858 95.5744 115.655 89.2388 159.155 68.2388C178.759 58.7752 226.655 54.6839 226.655 54.6839M477.155 365.739C477.155 433.239 477.155 435.239 477.155 435.239M477.155 365.739V435.239M477.155 435.239C477.155 435.239 479.198 397.677 490.655 381.239C502.272 364.572 524.339 360.455 527.655 337.239C532.155 305.739 532.655 280.239 531.155 260.739C527.655 215.239 521.879 189.065 499.155 149.739C477.464 112.2 459.719 90.5514 421.155 70.7388C400.392 60.0713 364.155 52.7388 364.155 52.7388M226.655 54.6839C226.655 54.6839 243.054 51.5783 253.655 50.2388C289.107 45.7598 309.632 46.3798 345.155 50.2388C352.596 51.047 364.155 52.7388 364.155 52.7388M226.655 54.6839C226.655 54.6839 233.552 29.8438 248.155 18.7388C265.47 5.57231 282.647 -3.40495 305.655 1.2388C321.97 4.53151 334.662 8.29373 347.155 21.2388C356.863 31.2971 364.155 52.7388 364.155 52.7388" stroke="black"/>
<path d="M104.156 711.239C104.156 711.239 107.156 739.239 110.156 748.239C111.822 753.239 113.156 758.651 119.156 765.739C130.611 779.272 143.641 786.401 159.655 791.739C201.655 805.739 232.162 806.659 270.155 799.239C302.617 792.899 312.744 787.644 336.656 774.239C369.656 755.739 387.355 731.355 403.155 707.239C422.155 678.239 429.516 652.873 440.155 618.739C458.591 559.595 470.655 491.739 470.655 491.739C470.655 491.739 472.177 635.321 410.155 730.739C390.655 760.739 384.155 770.664 355.155 790.239C335.156 803.739 327.656 810.739 289.656 819.239C263.562 825.076 248.882 825.04 222.156 824.239C200.847 823.6 184.155 822.239 166.655 816.739C153.768 812.688 153.155 813.239 138.156 804.239C128.285 798.316 115.835 787.242 108.156 765.739C105.656 758.739 104.156 752.239 104.156 743.239C104.156 730.239 104.156 711.239 104.156 711.239Z" fill="black"/>
<path d="M31.6555 504.739C26.6555 501.739 18.9318 483.302 13.6555 469.239C7.30043 452.301 4.65551 438.739 6.65551 425.239C7.72214 418.039 41.4494 414.774 69.1555 412.739C102.65 410.279 160.29 409.483 163.656 418.739C165.656 424.239 164.477 442.239 162.156 455.739C159.21 472.87 155.156 497.739 143.656 503.739C135.374 508.06 103.796 510.739 80.6555 510.739C57.6555 510.739 36.6555 507.739 31.6555 504.739Z" stroke="black" stroke-width="10"/>
<path d="M214.656 463.239C205.5 444.965 198.656 421.739 198.656 415.239C198.656 409.239 259.024 404.621 298.656 402.739C329.472 401.276 366.241 402.739 371.656 402.739C376.656 402.739 386.656 405.239 387.656 411.239C389.464 422.089 387.656 437.239 386.156 457.239C385.17 470.376 382.156 483.739 379.156 488.739L379.093 488.843C376.141 493.763 375.099 495.5 367.156 498.239C352.656 503.239 330.072 503.884 304.156 504.239C279.882 504.571 245.156 503.739 239.156 500.739C233.69 498.006 222.491 478.879 214.656 463.239Z" stroke="black" stroke-width="10"/>
</mask>
<g mask="url(#mask0_356_199)">
<rect width="532" height="825" fill="url(#paint0_linear_356_199)"/>
</g>
<defs>
<linearGradient id="paint0_linear_356_199" x1="266" y1="0" x2="266" y2="825" gradientUnits="userSpaceOnUse">
<stop stop-color="#FE7A09"/>
<stop offset="0.4" stop-color="#00796B"/>
</linearGradient>
</defs>
</svg>
