<svg width="1024" height="1024" viewBox="0 0 1024 1024" fill="none" xmlns="http://www.w3.org/2000/svg">
<path d="M291.156 518.739C284.756 401.539 277.655 421.739 291.155 344.239C304.655 266.739 351.156 259.739 364.155 265.239C377.155 270.739 420.155 275.739 454.155 270.739C488.155 265.739 514.656 239.739 574.156 233.739C633.656 227.739 651.156 245.239 668.656 281.739C685.632 317.147 673.331 342.834 684.156 380.239C694.227 415.04 720.156 398.239 720.156 465.739V535.239C720.156 535.239 722.198 497.677 733.656 481.239C745.272 464.572 767.339 460.455 770.656 437.239C775.156 405.739 775.656 380.239 774.156 360.739C770.656 315.239 764.879 289.065 742.156 249.739C720.464 212.2 702.719 190.551 664.156 170.739C643.392 160.071 607.156 152.739 607.156 152.739C607.156 152.739 595.596 151.047 588.156 150.239C552.632 146.38 532.107 145.76 496.655 150.239C486.054 151.578 469.655 154.684 469.655 154.684C469.655 154.684 421.759 158.775 402.155 168.239C358.655 189.239 344.858 195.574 320.655 226.239C297.447 255.644 289.9 276.154 279.656 311.739C270.074 345.021 269.573 366.044 268.656 399.739C267.348 447.784 291.156 518.739 291.156 518.739Z" fill="#180505"/>
<path d="M496.655 150.239C532.107 145.76 552.632 146.38 588.156 150.239C595.596 151.047 607.156 152.739 607.156 152.739C607.156 152.739 599.863 131.297 590.156 121.239C577.662 108.294 564.97 104.532 548.656 101.239C525.647 96.595 508.47 105.572 491.155 118.739C476.552 129.844 469.655 154.684 469.655 154.684C469.655 154.684 486.054 151.578 496.655 150.239Z" fill="#180505"/>
<path d="M720.156 465.739C720.156 398.239 694.227 415.04 684.156 380.239C673.331 342.834 685.632 317.147 668.656 281.739C651.156 245.239 633.656 227.739 574.156 233.739C514.656 239.739 488.155 265.739 454.155 270.739C420.155 275.739 377.155 270.739 364.155 265.239C351.156 259.739 304.655 266.739 291.155 344.239C277.655 421.739 284.756 401.539 291.156 518.739C291.156 518.739 267.348 447.784 268.656 399.739C269.573 366.044 270.074 345.021 279.656 311.739C289.9 276.154 297.447 255.644 320.655 226.239C344.858 195.574 358.655 189.239 402.155 168.239C421.759 158.775 469.655 154.684 469.655 154.684M720.156 465.739C720.156 533.239 720.156 535.239 720.156 535.239M720.156 465.739V535.239M720.156 535.239C720.156 535.239 722.198 497.677 733.656 481.239C745.272 464.572 767.339 460.455 770.656 437.239C775.156 405.739 775.656 380.239 774.156 360.739C770.656 315.239 764.879 289.065 742.156 249.739C720.464 212.2 702.719 190.551 664.156 170.739C643.392 160.071 607.156 152.739 607.156 152.739M469.655 154.684C469.655 154.684 486.054 151.578 496.655 150.239C532.107 145.76 552.632 146.38 588.156 150.239C595.596 151.047 607.156 152.739 607.156 152.739M469.655 154.684C469.655 154.684 476.552 129.844 491.155 118.739C508.47 105.572 525.647 96.595 548.656 101.239C564.97 104.532 577.662 108.294 590.156 121.239C599.863 131.297 607.156 152.739 607.156 152.739" stroke="black"/>
<path d="M347.156 811.239C347.156 811.239 350.156 839.239 353.156 848.239C354.822 853.239 356.156 858.651 362.156 865.739C373.611 879.272 386.641 886.401 402.656 891.739C444.656 905.739 475.162 906.659 513.156 899.239C545.617 892.899 555.744 887.644 579.656 874.239C612.656 855.739 630.355 831.355 646.156 807.239C665.156 778.239 672.516 752.873 683.156 718.739C701.591 659.595 713.656 591.739 713.656 591.739C713.656 591.739 715.177 735.321 653.156 830.739C633.656 860.739 627.156 870.664 598.156 890.239C578.156 903.739 570.656 910.739 532.656 919.239C506.562 925.076 491.882 925.04 465.156 924.239C443.847 923.6 427.156 922.239 409.656 916.739C396.768 912.688 396.156 913.239 381.156 904.239C371.285 898.316 358.835 887.242 351.156 865.739C348.656 858.739 347.156 852.239 347.156 843.239C347.156 830.239 347.156 811.239 347.156 811.239Z" fill="black"/>
<path d="M274.656 604.739C269.656 601.739 261.932 583.302 256.656 569.239C250.3 552.301 247.656 538.739 249.656 525.239C250.722 518.039 284.449 514.774 312.156 512.739C345.65 510.279 403.29 509.483 406.656 518.739C408.656 524.239 407.477 542.239 405.156 555.739C402.21 572.87 398.156 597.739 386.656 603.739C378.374 608.06 346.796 610.739 323.656 610.739C300.656 610.739 279.656 607.739 274.656 604.739Z" stroke="black" stroke-width="10"/>
<path d="M457.656 563.239C448.5 544.965 441.656 521.739 441.656 515.239C441.656 509.239 502.024 504.621 541.656 502.739C572.472 501.276 609.241 502.739 614.656 502.739C619.656 502.739 629.656 505.239 630.656 511.239C632.464 522.089 630.656 537.239 629.156 557.239C628.17 570.376 625.156 583.739 622.156 588.739L622.093 588.843C619.141 593.763 618.099 595.5 610.156 598.239C595.656 603.239 573.072 603.884 547.156 604.239C522.882 604.571 488.156 603.739 482.156 600.739C476.69 598.006 465.491 578.879 457.656 563.239Z" stroke="black" stroke-width="10"/>
</svg>
