<svg width="48" height="48" viewBox="0 0 48 48" fill="none" xmlns="http://www.w3.org/2000/svg">
<path d="M21.66 8.093C17.9944 8.4969 14.5706 10.1198 11.9374 12.7016C9.30411 15.2834 7.61396 18.6745 7.13782 22.3314C6.66169 25.9883 7.42714 29.6992 9.31149 32.8692C11.1958 36.0392 14.0899 38.4847 17.5299 39.8137C17.6525 39.8544 17.7834 39.8631 17.9103 39.8391C18.0372 39.815 18.1559 39.759 18.2551 39.6764C18.3543 39.5937 18.4308 39.4871 18.4774 39.3666C18.5239 39.2461 18.539 39.1158 18.5211 38.9878V36.3443C18.033 36.4538 17.5343 36.5092 17.034 36.5095C16.1744 36.4928 15.3498 36.1659 14.7122 35.589C14.0746 35.0122 13.667 34.2243 13.5645 33.3706C13.3989 32.7364 13.0549 32.163 12.5733 31.7183C12.0774 31.553 11.9127 31.553 11.9127 31.3877C11.9127 31.0571 12.4086 31.0571 12.5733 31.0571C13.5645 31.0571 14.391 32.2136 14.721 32.7095C15.5469 34.0313 16.5387 34.3618 17.034 34.3618C17.5487 34.3692 18.058 34.256 18.5211 34.0313C18.5731 33.4476 18.747 32.8813 19.0317 32.3691C19.3163 31.8568 19.7053 31.4101 20.1735 31.0577C16.3734 30.2317 13.5651 28.084 13.5651 24.4493C13.6212 22.6151 14.3233 20.8597 15.5475 19.4927C15.29 18.75 15.1777 17.9648 15.2169 17.1797C15.1643 16.448 15.2773 15.7139 15.5475 15.032C15.5551 14.9029 15.6097 14.7812 15.7011 14.6898C15.7925 14.5983 15.9143 14.5437 16.0434 14.5361H16.2087C17.7121 14.8486 19.0909 15.5953 20.174 16.6838C21.2425 16.3457 22.3576 16.1784 23.4782 16.1879C24.5989 16.1784 25.714 16.3457 26.7824 16.6838C27.9228 15.5833 29.3578 14.8373 30.9137 14.5361H31.079C31.4096 14.5361 31.5749 14.7014 31.7396 15.032V17.1797C31.7965 17.9655 31.6838 18.7543 31.409 19.4927C32.6601 20.8428 33.3664 22.6087 33.3914 24.4493C33.3914 28.0846 30.5825 30.2317 26.783 31.0577C27.3093 31.5399 27.7284 32.1274 28.0131 32.7821C28.2977 33.4367 28.4416 34.1439 28.4354 34.8577V39.1531C28.441 39.2901 28.4778 39.424 28.5431 39.5445C28.6083 39.6651 28.7002 39.7692 28.8117 39.8488C28.9233 39.9285 29.0515 39.9816 29.1867 40.0042C29.3219 40.0268 29.4605 40.0182 29.5919 39.979C33.3078 38.4876 36.3587 35.7023 38.1815 32.1372C40.0044 28.5721 40.476 24.468 39.5094 20.5824C38.5429 16.6968 36.2033 13.292 32.9226 10.9964C29.6419 8.70092 25.6416 7.66965 21.66 8.093V8.093Z" fill="#00796B"/>
</svg>
