<svg width="48" height="48" viewBox="0 0 48 48" fill="none" xmlns="http://www.w3.org/2000/svg">
<path d="M36.1907 8H11.8093C10.7992 8.00048 9.83054 8.40198 9.11626 9.11626C8.40198 9.83054 8.00048 10.7992 8 11.8093V36.1907C8.00048 37.2008 8.40198 38.1695 9.11626 38.8837C9.83054 39.598 10.7992 39.9995 11.8093 40H36.1907C37.2008 39.9995 38.1695 39.598 38.8837 38.8837C39.598 38.1695 39.9995 37.2008 40 36.1907V11.8093C39.9995 10.7992 39.598 9.83054 38.8837 9.11626C38.1695 8.40198 37.2008 8.00048 36.1907 8V8ZM17.905 20.1907V34.6671H13.3335V20.1907H17.905ZM13.3335 15.9772C13.3335 14.9105 14.2479 14.0962 15.6192 14.0962C16.9906 14.0962 17.8516 14.9118 17.905 15.9772C17.905 17.044 17.0518 17.905 15.6192 17.905C14.2498 17.905 13.3335 17.0409 13.3335 15.9772ZM34.6671 34.6659H30.0956V27.0478C30.0956 25.5242 29.3335 24 27.4258 23.9697H27.3652C25.5212 23.9697 24.7597 25.5394 24.7597 27.0478V34.6671H20.1907V20.1907H24.7621V22.1415C25.3122 21.5114 25.9942 21.0101 26.7596 20.6729C27.5251 20.3358 28.3554 20.1712 29.1916 20.1907C32.2163 20.1907 34.6695 22.2707 34.6695 26.4841L34.6671 34.6659Z" fill="#00796B"/>
</svg>
