<svg id="design" xmlns="http://www.w3.org/2000/svg" width="132.136" height="132.136" viewBox="0 0 132.136 132.136">
  <path id="Path_36" data-name="Path 36" d="M0,0H132.136V132.136H0Z" fill="none"/>
  <path id="Path_37" data-name="Path 37" d="M126.63,51.606,99.1,51.551A5.522,5.522,0,0,0,93.6,57.057v49.551a5.522,5.522,0,0,0,5.506,5.506H126.63a5.522,5.522,0,0,0,5.506-5.506V57.057A5.475,5.475,0,0,0,126.63,51.606Zm0,49.5H99.1V62.562H126.63ZM110.113,2h-99.1A10.973,10.973,0,0,0,0,13.011V79.079A11.008,11.008,0,0,0,11.011,90.091h38.54V101.1H38.54v11.011H82.585V101.1H71.574V90.091H82.585V79.079H11.011V13.011h99.1V40.54h11.011V13.011A11.008,11.008,0,0,0,110.113,2ZM65.9,40.54l-5.34-16.517L55.222,40.54H38.54l13.6,9.69L46.963,66.251l13.6-9.91,13.6,9.91L68.986,50.23l13.6-9.69Z" transform="translate(0 9.011)" fill="#fff"/>
</svg>
