<svg id="developer_mode" xmlns="http://www.w3.org/2000/svg" width="80.71" height="80.71" viewBox="0 0 80.71 80.71">
  <path id="Path_28" data-name="Path 28" d="M0,0H80.71V80.71H0Z" fill="none"/>
  <path id="Path_29" data-name="Path 29" d="M14.089,14.452H47.718v6.726h6.726V7.726a6.717,6.717,0,0,0-6.726-6.692L14.089,1A6.746,6.746,0,0,0,7.363,7.726V21.178h6.726ZM42.371,53.428,57.807,37.992,42.371,22.556l-4.742,4.775,10.66,10.66-10.66,10.66ZM24.178,48.653l-10.66-10.66,10.66-10.66-4.742-4.775L4,37.992,19.436,53.428Zm23.541,12.88H14.089V54.807H7.363V68.259a6.746,6.746,0,0,0,6.726,6.726H47.718a6.746,6.746,0,0,0,6.726-6.726V54.807H47.718Z" transform="translate(9.452 2.363)" fill="#fff"/>
</svg>
