<svg xmlns="http://www.w3.org/2000/svg" width="175" height="175" viewBox="0 0 175 175">
  <g id="hci" transform="translate(0 -0.124)" opacity="0.8">
    <g id="Group_34" data-name="Group 34" transform="translate(0 0.124)">
      <rect id="Rectangle_56" data-name="Rectangle 56" width="175" height="175" fill="none"/>
      <rect id="Rectangle_57" data-name="Rectangle 57" width="175" height="175" fill="none"/>
      <rect id="Rectangle_58" data-name="Rectangle 58" width="175" height="175" fill="none"/>
    </g>
    <g id="Group_36" data-name="Group 36" transform="translate(14.596 29.168)">
      <g id="Group_35" data-name="Group 35">
        <rect id="Rectangle_59" data-name="Rectangle 59" width="76.626" height="25.542" transform="translate(14.596 36.489)" fill="#CBEAFF" opacity="0.3"/>
        <rect id="Rectangle_60" data-name="Rectangle 60" width="76.626" height="25.542" transform="translate(14.596 76.626)" fill="#CBEAFF" opacity="0.3"/>
        <rect id="Rectangle_61" data-name="Rectangle 61" width="25.542" height="65.68" transform="translate(105.818 36.489)" fill="#CBEAFF" opacity="0.3"/>
        <path id="Path_45" data-name="Path 45" d="M133.36,4H16.6A14.576,14.576,0,0,0,2.073,18.6L2,106.169a14.638,14.638,0,0,0,14.6,14.6H133.36a14.638,14.638,0,0,0,14.6-14.6V18.6A14.638,14.638,0,0,0,133.36,4ZM93.222,106.169H16.6V80.626H93.222Zm0-40.138H16.6V40.489H93.222Zm40.138,40.138H107.818V40.489H133.36Z" transform="translate(-2 -4)" fill="#CBEAFF"/>
      </g>
    </g>
  </g>
</svg>
