<svg id="palette" xmlns="http://www.w3.org/2000/svg" width="81.5" height="81.5" viewBox="0 0 81.5 81.5">
  <path id="Path_34" data-name="Path 34" d="M33.563,3a30.563,30.563,0,0,0,0,61.125A5.1,5.1,0,0,0,37.332,55.6a5.075,5.075,0,0,1,3.8-8.456h6.011A16.985,16.985,0,0,0,64.125,30.167C64.125,15.157,50.44,3,33.563,3ZM14.885,33.563a5.094,5.094,0,1,1,5.094-5.094A5.087,5.087,0,0,1,14.885,33.563ZM25.073,19.979a5.094,5.094,0,1,1,5.094-5.094A5.087,5.087,0,0,1,25.073,19.979Zm16.979,0a5.094,5.094,0,1,1,5.094-5.094A5.087,5.087,0,0,1,42.052,19.979ZM52.24,33.563a5.094,5.094,0,1,1,5.094-5.094A5.087,5.087,0,0,1,52.24,33.563Z" transform="translate(7.188 7.188)" fill="#fff"/>
  <path id="Path_35" data-name="Path 35" d="M0,0H81.5V81.5H0Z" fill="none"/>
</svg>
