<svg id="people" xmlns="http://www.w3.org/2000/svg" width="80.71" height="80.71" viewBox="0 0 80.71 80.71">
  <path id="Path_32" data-name="Path 32" d="M0,0H80.71V80.71H0Z" fill="none"/>
  <path id="Path_33" data-name="Path 33" d="M51.444,25.178A10.089,10.089,0,1,0,41.355,15.089,10.047,10.047,0,0,0,51.444,25.178Zm-26.9,0A10.089,10.089,0,1,0,14.452,15.089,10.047,10.047,0,0,0,24.541,25.178Zm0,6.726C16.7,31.9,1,35.838,1,43.674v8.407H48.081V43.674C48.081,35.838,32.376,31.9,24.541,31.9Zm26.9,0c-.975,0-2.085.067-3.262.168,3.9,2.825,6.625,6.625,6.625,11.6v8.407H74.984V43.674C74.984,35.838,59.28,31.9,51.444,31.9Z" transform="translate(2.363 11.815)" fill="#fff"/>
</svg>
