<svg xmlns="http://www.w3.org/2000/svg" width="175.124" height="175.124" viewBox="0 0 175.124 175.124">
  <g id="speaker_phone-24px" opacity="0.8">
    <path id="Path_39" data-name="Path 39" d="M0,0H175.124V175.124H0Z" fill="none"/>
    <path id="Path_40" data-name="Path 40" d="M9,12H52.781V70.375H9Z" transform="translate(56.671 75.562)" fill="#CBEAFF" opacity="0.3"/>
    <path id="Path_41" data-name="Path 41" d="M60.8,1A80,80,0,0,0,4.25,24.423L14.539,34.711a65.532,65.532,0,0,1,92.524,0l10.289-10.289A80,80,0,0,0,60.8,1ZM24.316,45.292,34.751,55.726a36.818,36.818,0,0,1,52.1,0L97.284,45.292a51.615,51.615,0,0,0-72.968,0ZM81.669,66.744l-41.738-.073a8.315,8.315,0,0,0-8.318,8.318v70.852a8.315,8.315,0,0,0,8.318,8.318H81.6a8.315,8.315,0,0,0,8.318-8.318V74.99A8.145,8.145,0,0,0,81.669,66.744Zm1.022,72.9H38.91V81.265H82.691Z" transform="translate(26.761 6.297)" fill="#CBEAFF"/>
  </g>
</svg>
