<svg xmlns="http://www.w3.org/2000/svg" width="175.124" height="175.124" viewBox="0 0 175.124 175.124">
  <g id="verified_user-24px" opacity="0.8">
    <path id="Path_42" data-name="Path 42" d="M0,0H175.124V175.124H0Z" fill="none"/>
    <path id="Path_43" data-name="Path 43" d="M68.671,1,3,30.187V73.968c0,40.5,28.02,78.368,65.671,87.562,37.652-9.194,65.671-47.064,65.671-87.562V30.187Zm51.078,72.968c0,32.982-21.745,63.409-51.078,72.457-29.333-9.048-51.078-39.476-51.078-72.457v-34.3L68.671,16.98l51.078,22.693Zm-84.57,4.305L24.89,88.562l29.187,29.187,58.375-58.375L102.164,49.013,54.078,97.1Z" transform="translate(18.89 6.297)" fill="#CBEAFF"/>
    <path id="Path_44" data-name="Path 44" d="M5,25.883v34.3c0,32.982,21.745,63.409,51.078,72.457,29.333-8.975,51.078-39.476,51.078-72.457v-34.3L56.078,3.19Zm94.859,19.7L41.484,103.959,12.3,74.772,22.585,64.483l18.9,18.826L89.57,35.223Z" transform="translate(31.484 20.087)" fill="#CBEAFF" opacity="0.3"/>
  </g>
</svg>
